<svg width="701" height="1210" viewBox="0 0 701 1210" fill="none" xmlns="http://www.w3.org/2000/svg">
<line x1="12" y1="-12" x2="806.901" y2="-12" transform="matrix(0.752226 -0.658905 0.752226 0.658905 75.7665 1209.42)" stroke="#456ED9" stroke-width="24" stroke-linecap="round"/>
<line x1="12" y1="-12" x2="806.901" y2="-12" transform="matrix(0.752226 0.658905 0.752226 -0.658905 12.7657 62.8154)" stroke="#456ED9" stroke-width="24" stroke-linecap="round"/>
<path fill-rule="evenodd" clip-rule="evenodd" d="M3.73899 19.0888C-1.24633 14.722 -1.24633 7.64196 3.73899 3.27513C8.7243 -1.09171 16.8071 -1.09171 21.7924 3.27513L696.738 594.487C701.723 598.854 701.723 605.934 696.738 610.301L21.7924 1201.51C16.8071 1205.88 8.7243 1205.88 3.73899 1201.51C-1.24633 1197.15 -1.24633 1190.07 3.73899 1185.7L669.658 602.394L3.73899 19.0888Z" fill="#456ED9"/>
</svg>
